<svg width="2458" height="513" viewBox="0 0 2458 513" fill="none" xmlns="http://www.w3.org/2000/svg">
<path d="M748.638 68.3223C741.619 60.959 729.961 60.6797 722.597 67.6985L445.387 331.938C435.7 341.173 435.332 356.512 444.567 366.199L517.543 442.758C526.778 452.446 542.117 452.813 551.805 443.579L713.183 289.75C722.871 280.516 738.21 280.884 747.444 290.571L823.686 370.555C831.073 378.305 843.344 378.599 851.094 371.211L934.669 291.546C942.42 284.159 942.713 271.888 935.326 264.137L749.339 69.0218C749.11 68.7815 748.876 68.5483 748.638 68.3223Z" fill="white"/>
<path d="M471.363 68.3197C464.345 60.9579 452.689 60.6786 445.327 67.696L168.115 331.938C158.427 341.173 158.06 356.512 167.294 366.199L240.27 442.758C249.505 452.446 264.844 452.813 274.532 443.579L435.911 289.75C445.598 280.516 460.937 280.883 470.172 290.571L546.413 370.555C553.8 378.305 566.072 378.599 573.822 371.211L657.397 291.546C665.147 284.159 665.441 271.888 658.053 264.137L472.067 69.0218C471.837 68.7805 471.602 68.5465 471.363 68.3197Z" fill="#7A56FF"/>
<path d="M1233 179.881V333.441H1202.2V233.561L1161.06 333.441H1137.74L1096.38 233.561V333.441H1065.58V179.881H1100.56L1149.4 294.061L1198.24 179.881H1233ZM1317.57 335.421C1305.84 335.421 1295.28 332.854 1285.89 327.721C1276.5 322.441 1269.1 315.034 1263.67 305.501C1258.39 295.968 1255.75 284.968 1255.75 272.501C1255.75 260.034 1258.46 249.034 1263.89 239.501C1269.46 229.968 1277.02 222.634 1286.55 217.501C1296.08 212.221 1306.72 209.581 1318.45 209.581C1330.18 209.581 1340.82 212.221 1350.35 217.501C1359.88 222.634 1367.36 229.968 1372.79 239.501C1378.36 249.034 1381.15 260.034 1381.15 272.501C1381.15 284.968 1378.29 295.968 1372.57 305.501C1367 315.034 1359.37 322.441 1349.69 327.721C1340.16 332.854 1329.45 335.421 1317.57 335.421ZM1317.57 308.581C1323.14 308.581 1328.35 307.261 1333.19 304.621C1338.18 301.834 1342.14 297.728 1345.07 292.301C1348 286.874 1349.47 280.274 1349.47 272.501C1349.47 260.914 1346.39 252.041 1340.23 245.881C1334.22 239.574 1326.81 236.421 1318.01 236.421C1309.21 236.421 1301.8 239.574 1295.79 245.881C1289.92 252.041 1286.99 260.914 1286.99 272.501C1286.99 284.088 1289.85 293.034 1295.57 299.341C1301.44 305.501 1308.77 308.581 1317.57 308.581ZM1395.82 272.061C1395.82 259.741 1398.24 248.814 1403.08 239.281C1408.07 229.748 1414.82 222.414 1423.32 217.281C1431.83 212.148 1441.29 209.581 1451.7 209.581C1459.62 209.581 1467.18 211.341 1474.36 214.861C1481.55 218.234 1487.27 222.781 1491.52 228.501V170.641H1522.76V333.441H1491.52V315.401C1487.71 321.414 1482.36 326.254 1475.46 329.921C1468.57 333.588 1460.58 335.421 1451.48 335.421C1441.22 335.421 1431.83 332.781 1423.32 327.501C1414.82 322.221 1408.07 314.814 1403.08 305.281C1398.24 295.601 1395.82 284.528 1395.82 272.061ZM1491.74 272.501C1491.74 265.021 1490.28 258.641 1487.34 253.361C1484.41 247.934 1480.45 243.828 1475.46 241.041C1470.48 238.108 1465.12 236.641 1459.4 236.641C1453.68 236.641 1448.4 238.034 1443.56 240.821C1438.72 243.608 1434.76 247.714 1431.68 253.141C1428.75 258.421 1427.28 264.728 1427.28 272.061C1427.28 279.394 1428.75 285.848 1431.68 291.421C1434.76 296.848 1438.72 301.028 1443.56 303.961C1448.55 306.894 1453.83 308.361 1459.4 308.361C1465.12 308.361 1470.48 306.968 1475.46 304.181C1480.45 301.248 1484.41 297.141 1487.34 291.861C1490.28 286.434 1491.74 279.981 1491.74 272.501ZM1544.92 272.061C1544.92 259.741 1547.34 248.814 1552.18 239.281C1557.17 229.748 1563.84 222.414 1572.2 217.281C1580.71 212.148 1590.17 209.581 1600.58 209.581C1609.68 209.581 1617.6 211.414 1624.34 215.081C1631.24 218.748 1636.74 223.368 1640.84 228.941V211.561H1671.86V333.441H1640.84V315.621C1636.88 321.341 1631.38 326.108 1624.34 329.921C1617.45 333.588 1609.46 335.421 1600.36 335.421C1590.1 335.421 1580.71 332.781 1572.2 327.501C1563.84 322.221 1557.17 314.814 1552.18 305.281C1547.34 295.601 1544.92 284.528 1544.92 272.061ZM1640.84 272.501C1640.84 265.021 1639.38 258.641 1636.44 253.361C1633.51 247.934 1629.55 243.828 1624.56 241.041C1619.58 238.108 1614.22 236.641 1608.5 236.641C1602.78 236.641 1597.5 238.034 1592.66 240.821C1587.82 243.608 1583.86 247.714 1580.78 253.141C1577.85 258.421 1576.38 264.728 1576.38 272.061C1576.38 279.394 1577.85 285.848 1580.78 291.421C1583.86 296.848 1587.82 301.028 1592.66 303.961C1597.65 306.894 1602.93 308.361 1608.5 308.361C1614.22 308.361 1619.58 306.968 1624.56 304.181C1629.55 301.248 1633.51 297.141 1636.44 291.861C1639.38 286.434 1640.84 279.981 1640.84 272.501ZM1732.75 170.641V333.441H1701.95V170.641H1732.75Z" fill="white"/>
<path d="M1755.7 256.441C1755.7 241.334 1759.07 227.841 1765.82 215.961C1772.71 203.934 1782.02 194.621 1793.76 188.021C1805.64 181.274 1818.91 177.901 1833.58 177.901C1850.74 177.901 1865.77 182.301 1878.68 191.101C1891.58 199.901 1900.6 212.074 1905.74 227.621H1870.32C1866.8 220.288 1861.81 214.788 1855.36 211.121C1849.05 207.454 1841.72 205.621 1833.36 205.621C1824.41 205.621 1816.42 207.748 1809.38 212.001C1802.48 216.108 1797.06 221.974 1793.1 229.601C1789.28 237.228 1787.38 246.174 1787.38 256.441C1787.38 266.561 1789.28 275.508 1793.1 283.281C1797.06 290.908 1802.48 296.848 1809.38 301.101C1816.42 305.208 1824.41 307.261 1833.36 307.261C1841.72 307.261 1849.05 305.428 1855.36 301.761C1861.81 297.948 1866.8 292.374 1870.32 285.041H1905.74C1900.6 300.734 1891.58 312.981 1878.68 321.781C1865.92 330.434 1850.88 334.761 1833.58 334.761C1818.91 334.761 1805.64 331.461 1793.76 324.861C1782.02 318.114 1772.71 308.801 1765.82 296.921C1759.07 285.041 1755.7 271.548 1755.7 256.441ZM2000.68 209.801C2009.92 209.801 2018.14 211.854 2025.32 215.961C2032.51 219.921 2038.08 225.861 2042.04 233.781C2046.15 241.554 2048.2 250.941 2048.2 261.941V333.441H2017.4V266.121C2017.4 256.441 2014.98 249.034 2010.14 243.901C2005.3 238.621 1998.7 235.981 1990.34 235.981C1981.84 235.981 1975.09 238.621 1970.1 243.901C1965.26 249.034 1962.84 256.441 1962.84 266.121V333.441H1932.04V170.641H1962.84V226.741C1966.8 221.461 1972.08 217.354 1978.68 214.421C1985.28 211.341 1992.62 209.801 2000.68 209.801ZM2069.57 272.061C2069.57 259.741 2071.99 248.814 2076.83 239.281C2081.82 229.748 2088.49 222.414 2096.85 217.281C2105.36 212.148 2114.82 209.581 2125.23 209.581C2134.33 209.581 2142.25 211.414 2148.99 215.081C2155.89 218.748 2161.39 223.368 2165.49 228.941V211.561H2196.51V333.441H2165.49V315.621C2161.53 321.341 2156.03 326.108 2148.99 329.921C2142.1 333.588 2134.11 335.421 2125.01 335.421C2114.75 335.421 2105.36 332.781 2096.85 327.501C2088.49 322.221 2081.82 314.814 2076.83 305.281C2071.99 295.601 2069.57 284.528 2069.57 272.061ZM2165.49 272.501C2165.49 265.021 2164.03 258.641 2161.09 253.361C2158.16 247.934 2154.2 243.828 2149.21 241.041C2144.23 238.108 2138.87 236.641 2133.15 236.641C2127.43 236.641 2122.15 238.034 2117.31 240.821C2112.47 243.608 2108.51 247.714 2105.43 253.141C2102.5 258.421 2101.03 264.728 2101.03 272.061C2101.03 279.394 2102.5 285.848 2105.43 291.421C2108.51 296.848 2112.47 301.028 2117.31 303.961C2122.3 306.894 2127.58 308.361 2133.15 308.361C2138.87 308.361 2144.23 306.968 2149.21 304.181C2154.2 301.248 2158.16 297.141 2161.09 291.861C2164.03 286.434 2165.49 279.981 2165.49 272.501ZM2262.45 236.861V295.821C2262.45 299.928 2263.41 302.934 2265.31 304.841C2267.37 306.601 2270.74 307.481 2275.43 307.481H2289.73V333.441H2270.37C2244.41 333.441 2231.43 320.828 2231.43 295.601V236.861H2216.91V211.561H2231.43V181.421H2262.45V211.561H2289.73V236.861H2262.45Z" fill="#7A56FF"/>
</svg>
