<svg width="2458" height="512" viewBox="0 0 2458 512" fill="none" xmlns="http://www.w3.org/2000/svg">
<path d="M748.638 67.8814C741.619 60.5181 729.961 60.2388 722.597 67.2576L445.387 331.497C435.7 340.732 435.332 356.071 444.567 365.759L517.543 442.317C526.778 452.005 542.117 452.372 551.805 443.138L713.183 289.31C722.871 280.075 738.21 280.443 747.444 290.13L823.686 370.114C831.073 377.864 843.344 378.158 851.094 370.77L934.669 291.106C942.42 283.718 942.713 271.447 935.326 263.697L749.339 68.5809C749.11 68.3405 748.876 68.1074 748.638 67.8814Z" fill="#113E53"/>
<path d="M471.363 67.8788C464.345 60.517 452.689 60.2377 445.327 67.2551L168.115 331.497C158.427 340.732 158.06 356.071 167.294 365.759L240.27 442.317C249.505 452.005 264.844 452.372 274.532 443.138L435.911 289.309C445.598 280.075 460.937 280.443 470.172 290.13L546.413 370.114C553.8 377.864 566.072 378.158 573.822 370.77L657.397 291.106C665.147 283.718 665.441 271.447 658.053 263.697L472.067 68.5809C471.837 68.3396 471.602 68.1056 471.363 67.8788Z" fill="#7A56FF"/>
<path d="M1233 179.44V333H1202.2V233.12L1161.06 333H1137.74L1096.38 233.12V333H1065.58V179.44H1100.56L1149.4 293.62L1198.24 179.44H1233ZM1317.57 334.98C1305.84 334.98 1295.28 332.413 1285.89 327.28C1276.5 322 1269.1 314.593 1263.67 305.06C1258.39 295.527 1255.75 284.527 1255.75 272.06C1255.75 259.593 1258.46 248.593 1263.89 239.06C1269.46 229.527 1277.02 222.193 1286.55 217.06C1296.08 211.78 1306.72 209.14 1318.45 209.14C1330.18 209.14 1340.82 211.78 1350.35 217.06C1359.88 222.193 1367.36 229.527 1372.79 239.06C1378.36 248.593 1381.15 259.593 1381.15 272.06C1381.15 284.527 1378.29 295.527 1372.57 305.06C1367 314.593 1359.37 322 1349.69 327.28C1340.16 332.413 1329.45 334.98 1317.57 334.98ZM1317.57 308.14C1323.14 308.14 1328.35 306.82 1333.19 304.18C1338.18 301.393 1342.14 297.287 1345.07 291.86C1348 286.433 1349.47 279.833 1349.47 272.06C1349.47 260.473 1346.39 251.6 1340.23 245.44C1334.22 239.133 1326.81 235.98 1318.01 235.98C1309.21 235.98 1301.8 239.133 1295.79 245.44C1289.92 251.6 1286.99 260.473 1286.99 272.06C1286.99 283.647 1289.85 292.593 1295.57 298.9C1301.44 305.06 1308.77 308.14 1317.57 308.14ZM1395.82 271.62C1395.82 259.3 1398.24 248.373 1403.08 238.84C1408.07 229.307 1414.82 221.973 1423.32 216.84C1431.83 211.707 1441.29 209.14 1451.7 209.14C1459.62 209.14 1467.18 210.9 1474.36 214.42C1481.55 217.793 1487.27 222.34 1491.52 228.06V170.2H1522.76V333H1491.52V314.96C1487.71 320.973 1482.36 325.813 1475.46 329.48C1468.57 333.147 1460.58 334.98 1451.48 334.98C1441.22 334.98 1431.83 332.34 1423.32 327.06C1414.82 321.78 1408.07 314.373 1403.08 304.84C1398.24 295.16 1395.82 284.087 1395.82 271.62ZM1491.74 272.06C1491.74 264.58 1490.28 258.2 1487.34 252.92C1484.41 247.493 1480.45 243.387 1475.46 240.6C1470.48 237.667 1465.12 236.2 1459.4 236.2C1453.68 236.2 1448.4 237.593 1443.56 240.38C1438.72 243.167 1434.76 247.273 1431.68 252.7C1428.75 257.98 1427.28 264.287 1427.28 271.62C1427.28 278.953 1428.75 285.407 1431.68 290.98C1434.76 296.407 1438.72 300.587 1443.56 303.52C1448.55 306.453 1453.83 307.92 1459.4 307.92C1465.12 307.92 1470.48 306.527 1475.46 303.74C1480.45 300.807 1484.41 296.7 1487.34 291.42C1490.28 285.993 1491.74 279.54 1491.74 272.06ZM1544.92 271.62C1544.92 259.3 1547.34 248.373 1552.18 238.84C1557.17 229.307 1563.84 221.973 1572.2 216.84C1580.71 211.707 1590.17 209.14 1600.58 209.14C1609.68 209.14 1617.6 210.973 1624.34 214.64C1631.24 218.307 1636.74 222.927 1640.84 228.5V211.12H1671.86V333H1640.84V315.18C1636.88 320.9 1631.38 325.667 1624.34 329.48C1617.45 333.147 1609.46 334.98 1600.36 334.98C1590.1 334.98 1580.71 332.34 1572.2 327.06C1563.84 321.78 1557.17 314.373 1552.18 304.84C1547.34 295.16 1544.92 284.087 1544.92 271.62ZM1640.84 272.06C1640.84 264.58 1639.38 258.2 1636.44 252.92C1633.51 247.493 1629.55 243.387 1624.56 240.6C1619.58 237.667 1614.22 236.2 1608.5 236.2C1602.78 236.2 1597.5 237.593 1592.66 240.38C1587.82 243.167 1583.86 247.273 1580.78 252.7C1577.85 257.98 1576.38 264.287 1576.38 271.62C1576.38 278.953 1577.85 285.407 1580.78 290.98C1583.86 296.407 1587.82 300.587 1592.66 303.52C1597.65 306.453 1602.93 307.92 1608.5 307.92C1614.22 307.92 1619.58 306.527 1624.56 303.74C1629.55 300.807 1633.51 296.7 1636.44 291.42C1639.38 285.993 1640.84 279.54 1640.84 272.06ZM1732.75 170.2V333H1701.95V170.2H1732.75Z" fill="#113E53"/>
<path d="M1755.7 256C1755.7 240.893 1759.07 227.4 1765.82 215.52C1772.71 203.493 1782.02 194.18 1793.76 187.58C1805.64 180.833 1818.91 177.46 1833.58 177.46C1850.74 177.46 1865.77 181.86 1878.68 190.66C1891.58 199.46 1900.6 211.633 1905.74 227.18H1870.32C1866.8 219.847 1861.81 214.347 1855.36 210.68C1849.05 207.013 1841.72 205.18 1833.36 205.18C1824.41 205.18 1816.42 207.307 1809.38 211.56C1802.48 215.667 1797.06 221.533 1793.1 229.16C1789.28 236.787 1787.38 245.733 1787.38 256C1787.38 266.12 1789.28 275.067 1793.1 282.84C1797.06 290.467 1802.48 296.407 1809.38 300.66C1816.42 304.767 1824.41 306.82 1833.36 306.82C1841.72 306.82 1849.05 304.987 1855.36 301.32C1861.81 297.507 1866.8 291.933 1870.32 284.6H1905.74C1900.6 300.293 1891.58 312.54 1878.68 321.34C1865.92 329.993 1850.88 334.32 1833.58 334.32C1818.91 334.32 1805.64 331.02 1793.76 324.42C1782.02 317.673 1772.71 308.36 1765.82 296.48C1759.07 284.6 1755.7 271.107 1755.7 256ZM2000.68 209.36C2009.92 209.36 2018.14 211.413 2025.32 215.52C2032.51 219.48 2038.08 225.42 2042.04 233.34C2046.15 241.113 2048.2 250.5 2048.2 261.5V333H2017.4V265.68C2017.4 256 2014.98 248.593 2010.14 243.46C2005.3 238.18 1998.7 235.54 1990.34 235.54C1981.84 235.54 1975.09 238.18 1970.1 243.46C1965.26 248.593 1962.84 256 1962.84 265.68V333H1932.04V170.2H1962.84V226.3C1966.8 221.02 1972.08 216.913 1978.68 213.98C1985.28 210.9 1992.62 209.36 2000.68 209.36ZM2069.57 271.62C2069.57 259.3 2071.99 248.373 2076.83 238.84C2081.82 229.307 2088.49 221.973 2096.85 216.84C2105.36 211.707 2114.82 209.14 2125.23 209.14C2134.33 209.14 2142.25 210.973 2148.99 214.64C2155.89 218.307 2161.39 222.927 2165.49 228.5V211.12H2196.51V333H2165.49V315.18C2161.53 320.9 2156.03 325.667 2148.99 329.48C2142.1 333.147 2134.11 334.98 2125.01 334.98C2114.75 334.98 2105.36 332.34 2096.85 327.06C2088.49 321.78 2081.82 314.373 2076.83 304.84C2071.99 295.16 2069.57 284.087 2069.57 271.62ZM2165.49 272.06C2165.49 264.58 2164.03 258.2 2161.09 252.92C2158.16 247.493 2154.2 243.387 2149.21 240.6C2144.23 237.667 2138.87 236.2 2133.15 236.2C2127.43 236.2 2122.15 237.593 2117.31 240.38C2112.47 243.167 2108.51 247.273 2105.43 252.7C2102.5 257.98 2101.03 264.287 2101.03 271.62C2101.03 278.953 2102.5 285.407 2105.43 290.98C2108.51 296.407 2112.47 300.587 2117.31 303.52C2122.3 306.453 2127.58 307.92 2133.15 307.92C2138.87 307.92 2144.23 306.527 2149.21 303.74C2154.2 300.807 2158.16 296.7 2161.09 291.42C2164.03 285.993 2165.49 279.54 2165.49 272.06ZM2262.45 236.42V295.38C2262.45 299.487 2263.41 302.493 2265.31 304.4C2267.37 306.16 2270.74 307.04 2275.43 307.04H2289.73V333H2270.37C2244.41 333 2231.43 320.387 2231.43 295.16V236.42H2216.91V211.12H2231.43V180.98H2262.45V211.12H2289.73V236.42H2262.45Z" fill="#7A56FF"/>
</svg>
