<svg width="512" height="513" viewBox="0 0 512 513" fill="none" xmlns="http://www.w3.org/2000/svg">
<path d="M385.955 133.411C381.348 128.578 373.696 128.395 368.863 133.002L186.918 306.434C180.559 312.495 180.318 322.563 186.379 328.921L234.277 379.17C240.338 385.528 250.406 385.769 256.764 379.708L362.684 278.744C369.042 272.683 379.11 272.924 385.171 279.283L435.212 331.779C440.06 336.866 448.115 337.059 453.201 332.21L508.055 279.923C513.142 275.074 513.335 267.02 508.486 261.933L386.415 133.87C386.264 133.712 386.111 133.559 385.955 133.411Z" fill="white"/>
<path d="M203.967 133.409C199.361 128.578 191.71 128.394 186.878 133L4.9314 306.434C-1.42699 312.495 -1.66816 322.563 4.39274 328.921L52.2905 379.17C58.3514 385.528 68.4192 385.769 74.7776 379.708L180.698 278.744C187.056 272.683 197.124 272.924 203.185 279.283L253.225 331.779C258.074 336.866 266.128 337.059 271.215 332.21L326.069 279.923C331.156 275.074 331.349 267.02 326.5 261.933L204.429 133.87C204.278 133.712 204.124 133.558 203.967 133.409Z" fill="#7A56FF"/>
</svg>
